<svg width="128" height="113" viewBox="0 0 128 113" fill="none" xmlns="http://www.w3.org/2000/svg">
<path fill-rule="evenodd" clip-rule="evenodd" d="M69.2951 0.670161C77.4558 1.28531 84.0691 7.04931 90.1105 12.6167C95.5562 17.6353 99.5776 23.7671 101.988 30.7987C104.439 37.9484 106.69 45.83 103.904 52.854C101.18 59.7214 93.5906 62.6555 87.6392 66.9774C81.72 71.2759 76.5842 77.7212 69.2951 77.9867C61.9312 78.2549 55.9213 72.7216 49.9625 68.3496C44.0077 63.9805 37.3438 59.7907 34.9312 52.7737C32.4983 45.6973 35.2482 38.2155 37.1091 30.9648C39.1029 23.1967 40.2729 14.7732 46.0894 9.29849C52.2678 3.48312 60.8677 0.0349096 69.2951 0.670161Z" fill="#6C63FF"/>
<g clip-path="url(#clip0_3_162)">
<path d="M127.305 81.8477C127.317 88.9915 124.547 95.9068 119.49 101.361C119.306 101.56 119.119 101.756 118.928 101.95C116.686 104.251 114.074 106.228 111.182 107.813C110.518 108.177 109.84 108.519 109.148 108.841C109.078 108.873 109.007 108.906 108.937 108.937C108.853 108.976 108.768 109.014 108.683 109.051C106.931 109.834 105.105 110.472 103.229 110.959C103.033 111.009 102.838 111.058 102.642 111.106C100.173 111.702 97.6373 112.035 95.0847 112.1C94.9515 112.103 94.8207 112.105 94.6944 112.107C94.6497 112.108 94.606 112.109 94.5624 112.109C94.4189 112.11 94.2766 112.111 94.1331 112.111C91.4431 112.113 88.7628 111.816 86.1511 111.228C85.8894 111.17 85.6289 111.108 85.3695 111.043C84.0031 110.703 82.6623 110.282 81.3555 109.783C80.6668 109.521 79.9904 109.239 79.3262 108.936C79.1758 108.867 79.0254 108.798 78.8774 108.727C78.8142 108.698 78.7523 108.668 78.6903 108.639C75.1502 106.934 71.9755 104.662 69.3183 101.93C69.1346 101.743 68.9544 101.552 68.7765 101.361C65.8487 98.1938 63.6648 94.5123 62.3599 90.544C61.0551 86.5758 60.6572 82.4054 61.1908 78.2911C61.7244 74.1769 63.1782 70.2064 65.4621 66.6255C67.746 63.0447 70.8115 59.9298 74.4686 57.4737C74.6568 57.347 74.8462 57.2213 75.0379 57.0988C75.0758 57.0747 75.1136 57.0506 75.1515 57.0265C78.5196 54.8742 82.3 53.3167 86.2969 52.4347C86.5242 52.3833 86.7515 52.3352 86.981 52.2901C91.3103 51.4262 95.7845 51.3547 100.144 52.0797C100.373 52.1184 100.601 52.1582 100.828 52.2011C104.79 52.9424 108.568 54.342 111.974 56.3301C112.05 56.3741 112.125 56.4181 112.201 56.4642C112.354 56.5542 112.506 56.6464 112.657 56.7396C117.169 59.5071 120.865 63.245 123.42 67.6237C125.975 72.0025 127.309 76.8874 127.305 81.8477V81.8477Z" fill="#F2F2F2"/>
<path d="M85.7539 97.5041L75.1514 98.3628L75.0378 98.3722V57.0988C75.0757 57.0747 75.1135 57.0506 75.1514 57.0265C77.3611 55.6165 79.7514 54.4581 82.2691 53.5771L82.8109 60.3943L82.8602 61.0184L83.3962 67.7789L83.5615 69.8586L85.7344 97.2632L85.7539 97.5041Z" fill="#CCCCCC"/>
<path d="M111.974 56.3302C112.049 56.3742 112.125 56.4182 112.201 56.4643V98.3722L111.974 98.3534L101.486 97.5041L101.506 97.2633L103.678 69.8587L103.844 67.779L104.38 61.0184L104.429 60.3943L104.997 53.2452C107.447 54.0201 109.789 55.0555 111.974 56.3302V56.3302Z" fill="#CCCCCC"/>
<path d="M111.974 56.3302V98.944C111.974 99.7618 111.356 100.427 110.596 100.427H76.5288C75.8998 100.427 75.366 99.9702 75.2042 99.3471C75.1689 99.2152 75.1511 99.0798 75.1514 98.944V57.0266C75.1135 57.0507 75.0756 57.0747 75.0378 57.0988C74.8461 57.2213 74.6567 57.347 74.4684 57.4737V98.944C74.4583 99.5652 74.7125 100.166 75.1778 100.619C75.4217 100.853 75.7303 101.021 76.0708 101.107C76.2201 101.144 76.3741 101.163 76.5288 101.163H110.596C110.751 101.163 110.906 101.144 111.055 101.107C111.971 100.882 112.657 99.9985 112.657 98.944V56.7396C112.506 56.6464 112.354 56.5543 112.201 56.4642C112.125 56.4182 112.049 56.3742 111.974 56.3302Z" fill="#CCCCCC"/>
<path d="M112.315 60.3947H74.8099V61.0187H112.315V60.3947Z" fill="#CCCCCC"/>
<path d="M86.2968 52.4347C86.5241 52.3834 86.7514 52.3352 86.9809 52.2902V69.2345H86.2968V52.4347Z" fill="#CCCCCC"/>
<path d="M100.144 52.0797C100.373 52.1185 100.601 52.1583 100.828 52.2012V69.2345H100.144V52.0797Z" fill="#CCCCCC"/>
<path d="M116.59 97.2632H71.6747C70.8582 97.2632 70.0752 97.5591 69.4979 98.0858C68.9205 98.6125 68.5962 99.3268 68.5962 100.072C68.5962 100.817 68.9205 101.531 69.4979 102.058C70.0752 102.584 70.8582 102.88 71.6747 102.88H116.59C117.027 102.88 117.46 102.795 117.858 102.631C118.256 102.466 118.611 102.226 118.9 101.926C119.03 101.791 119.146 101.644 119.246 101.489C119.324 101.369 119.391 101.245 119.447 101.116C119.635 100.69 119.705 100.228 119.651 99.7716C119.598 99.3151 119.422 98.8775 119.14 98.4972C118.858 98.1169 118.478 97.8055 118.034 97.5904C117.589 97.3753 117.094 97.2629 116.59 97.2632V97.2632Z" fill="#CCCCCC"/>
<path d="M112.315 67.7788H75.038V69.8589H112.315V67.7788Z" fill="#CCCCCC"/>
<path d="M93.3347 67.1548H94.0187C94.1834 67.1548 94.3465 67.1844 94.4986 67.2419C94.6507 67.2994 94.789 67.3836 94.9054 67.4899C95.0219 67.5961 95.1142 67.7222 95.1772 67.861C95.2403 67.9998 95.2727 68.1486 95.2727 68.2988V68.2988H92.0807C92.0807 67.9954 92.2129 67.7044 92.448 67.4899C92.6832 67.2753 93.0022 67.1548 93.3347 67.1548H93.3347Z" fill="#CCCCCC"/>
<path d="M119.49 101.361C118.492 102.439 117.414 103.452 116.262 104.392H72.0041C70.852 103.452 69.7735 102.439 68.7764 101.361H119.49Z" fill="#3F3D56"/>
<path d="M97.8382 90.8607H90.3865C90.3464 90.8603 90.3064 90.866 90.2683 90.8775C90.1874 90.9003 90.1167 90.9462 90.0665 91.0084C90.0163 91.0706 89.9892 91.1458 89.9894 91.2231V101.963H98.2365V91.2231C98.2365 91.1754 98.2261 91.1282 98.2061 91.0842C98.186 91.0402 98.1567 91.0002 98.1197 90.9666C98.0827 90.9329 98.0388 90.9063 97.9905 90.8881C97.9422 90.8699 97.8905 90.8606 97.8382 90.8607ZM95.018 96.1594C95.0183 96.3336 94.9553 96.503 94.8389 96.6411C94.7279 96.7752 94.5736 96.8741 94.3976 96.9238C94.2217 96.9736 94.0332 96.9718 93.8585 96.9185C93.6838 96.8653 93.5318 96.7635 93.4239 96.6273C93.3161 96.4911 93.2578 96.3275 93.2572 96.1594V94.9133C93.2594 94.7016 93.3531 94.4992 93.518 94.3502C93.6828 94.2011 93.9055 94.1175 94.1376 94.1175C94.3697 94.1175 94.5924 94.2011 94.7573 94.3502C94.9222 94.4992 95.0159 94.7016 95.018 94.9133V96.1594Z" fill="#2F2E41"/>
<path d="M89.9641 101.62V102.655C89.9641 102.709 89.9874 102.76 90.0289 102.798C90.0704 102.837 90.1268 102.858 90.1856 102.858H98.0402C98.099 102.858 98.1553 102.836 98.1967 102.798C98.2382 102.76 98.2616 102.709 98.2617 102.655V101.62H89.9641Z" fill="#3F3D56"/>
<path d="M110.177 74.1007H78.3252C78.0515 74.101 77.7891 74.2003 77.5955 74.3767C77.4018 74.5532 77.2928 74.7924 77.2921 75.0421V94.6515C77.2923 94.9014 77.4012 95.141 77.5949 95.3177C77.7886 95.4944 78.0512 95.5938 78.3252 95.594H110.177C110.451 95.5938 110.714 95.4944 110.908 95.3177C111.101 95.141 111.21 94.9014 111.21 94.6515V75.0421C111.21 74.7924 111.101 74.5532 110.907 74.3767C110.713 74.2003 110.451 74.101 110.177 74.1007V74.1007Z" fill="#3F3D56"/>
<path d="M109.911 74.7814H78.5903C78.4437 74.7817 78.3033 74.835 78.1998 74.9296C78.0963 75.0242 78.0382 75.1524 78.0381 75.2861V94.4096C78.0384 94.5431 78.0966 94.6711 78.2001 94.7655C78.3036 94.8599 78.4439 94.9131 78.5903 94.9133H109.911C110.057 94.9131 110.198 94.8599 110.301 94.7655C110.405 94.6711 110.463 94.5431 110.463 94.4096V75.2861C110.463 75.1524 110.405 75.0242 110.301 74.9296C110.198 74.835 110.058 74.7817 109.911 74.7814Z" fill="#6C63FF"/>
<path d="M104.147 102.841L103.857 101.588C103.845 101.537 103.82 101.489 103.782 101.45C103.745 101.41 103.697 101.379 103.644 101.361C103.605 101.347 103.564 101.34 103.522 101.34H85.4658C85.4242 101.34 85.3829 101.347 85.3441 101.361C85.2906 101.379 85.243 101.41 85.2057 101.45C85.1684 101.489 85.1426 101.537 85.1307 101.588L84.8414 102.841C84.8309 102.887 84.8317 102.934 84.8437 102.979C84.8557 103.024 84.8786 103.067 84.9107 103.103C84.9428 103.139 84.9833 103.168 85.0293 103.188C85.0753 103.208 85.1256 103.218 85.1766 103.218H103.81C103.862 103.219 103.912 103.208 103.958 103.188C104.004 103.168 104.045 103.139 104.077 103.102C104.109 103.066 104.132 103.024 104.144 102.979C104.156 102.934 104.157 102.887 104.147 102.841V102.841Z" fill="#2F2E41"/>
<path d="M86.116 101.566H85.6542C85.6232 101.566 85.5981 101.588 85.5981 101.617V101.829C85.5981 101.857 85.6232 101.88 85.6542 101.88H86.116C86.147 101.88 86.1721 101.857 86.1721 101.829V101.617C86.1721 101.588 86.147 101.566 86.116 101.566Z" fill="#3F3D56"/>
<path d="M87.2638 101.566H86.8019C86.771 101.566 86.7459 101.588 86.7459 101.617V101.829C86.7459 101.857 86.771 101.88 86.8019 101.88H87.2638C87.2947 101.88 87.3198 101.857 87.3198 101.829V101.617C87.3198 101.588 87.2947 101.566 87.2638 101.566Z" fill="#3F3D56"/>
<path d="M88.4116 101.566H87.9498C87.9188 101.566 87.8937 101.588 87.8937 101.617V101.829C87.8937 101.857 87.9188 101.88 87.9498 101.88H88.4116C88.4426 101.88 88.4677 101.857 88.4677 101.829V101.617C88.4677 101.588 88.4426 101.566 88.4116 101.566Z" fill="#3F3D56"/>
<path d="M89.5595 101.566H89.0977C89.0667 101.566 89.0416 101.588 89.0416 101.617V101.829C89.0416 101.857 89.0667 101.88 89.0977 101.88H89.5595C89.5904 101.88 89.6155 101.857 89.6155 101.829V101.617C89.6155 101.588 89.5904 101.566 89.5595 101.566Z" fill="#3F3D56"/>
<path d="M90.7073 101.566H90.2455C90.2145 101.566 90.1895 101.588 90.1895 101.617V101.829C90.1895 101.857 90.2145 101.88 90.2455 101.88H90.7073C90.7383 101.88 90.7634 101.857 90.7634 101.829V101.617C90.7634 101.588 90.7383 101.566 90.7073 101.566Z" fill="#3F3D56"/>
<path d="M91.8552 101.566H91.3933C91.3624 101.566 91.3373 101.588 91.3373 101.617V101.829C91.3373 101.857 91.3624 101.88 91.3933 101.88H91.8552C91.8861 101.88 91.9112 101.857 91.9112 101.829V101.617C91.9112 101.588 91.8861 101.566 91.8552 101.566Z" fill="#3F3D56"/>
<path d="M93.003 101.566H92.5411C92.5102 101.566 92.4851 101.588 92.4851 101.617V101.829C92.4851 101.857 92.5102 101.88 92.5411 101.88H93.003C93.0339 101.88 93.059 101.857 93.059 101.829V101.617C93.059 101.588 93.0339 101.566 93.003 101.566Z" fill="#3F3D56"/>
<path d="M94.1508 101.566H93.6889C93.658 101.566 93.6329 101.588 93.6329 101.617V101.829C93.6329 101.857 93.658 101.88 93.6889 101.88H94.1508C94.1817 101.88 94.2068 101.857 94.2068 101.829V101.617C94.2068 101.588 94.1817 101.566 94.1508 101.566Z" fill="#3F3D56"/>
<path d="M95.2986 101.566H94.8367C94.8058 101.566 94.7807 101.588 94.7807 101.617V101.829C94.7807 101.857 94.8058 101.88 94.8367 101.88H95.2986C95.3295 101.88 95.3546 101.857 95.3546 101.829V101.617C95.3546 101.588 95.3295 101.566 95.2986 101.566Z" fill="#3F3D56"/>
<path d="M96.4464 101.566H95.9846C95.9536 101.566 95.9285 101.588 95.9285 101.617V101.829C95.9285 101.857 95.9536 101.88 95.9846 101.88H96.4464C96.4774 101.88 96.5024 101.857 96.5024 101.829V101.617C96.5024 101.588 96.4774 101.566 96.4464 101.566Z" fill="#3F3D56"/>
<path d="M97.5943 101.566H97.1325C97.1015 101.566 97.0764 101.588 97.0764 101.617V101.829C97.0764 101.857 97.1015 101.88 97.1325 101.88H97.5943C97.6252 101.88 97.6503 101.857 97.6503 101.829V101.617C97.6503 101.588 97.6252 101.566 97.5943 101.566Z" fill="#3F3D56"/>
<path d="M98.7421 101.566H98.2803C98.2493 101.566 98.2242 101.588 98.2242 101.617V101.829C98.2242 101.857 98.2493 101.88 98.2803 101.88H98.7421C98.7731 101.88 98.7981 101.857 98.7981 101.829V101.617C98.7981 101.588 98.7731 101.566 98.7421 101.566Z" fill="#3F3D56"/>
<path d="M99.8899 101.566H99.4281C99.3972 101.566 99.3721 101.588 99.3721 101.617V101.829C99.3721 101.857 99.3972 101.88 99.4281 101.88H99.8899C99.9209 101.88 99.946 101.857 99.946 101.829V101.617C99.946 101.588 99.9209 101.566 99.8899 101.566Z" fill="#3F3D56"/>
<path d="M101.038 101.566H100.576C100.545 101.566 100.52 101.588 100.52 101.617V101.829C100.52 101.857 100.545 101.88 100.576 101.88H101.038C101.069 101.88 101.094 101.857 101.094 101.829V101.617C101.094 101.588 101.069 101.566 101.038 101.566Z" fill="#3F3D56"/>
<path d="M102.186 101.566H101.724C101.693 101.566 101.668 101.588 101.668 101.617V101.829C101.668 101.857 101.693 101.88 101.724 101.88H102.186C102.217 101.88 102.242 101.857 102.242 101.829V101.617C102.242 101.588 102.217 101.566 102.186 101.566Z" fill="#3F3D56"/>
<path d="M103.333 101.566H102.872C102.841 101.566 102.815 101.588 102.815 101.617V101.829C102.815 101.857 102.841 101.88 102.872 101.88H103.333C103.364 101.88 103.389 101.857 103.389 101.829V101.617C103.389 101.588 103.364 101.566 103.333 101.566Z" fill="#3F3D56"/>
<path d="M86.1024 102.089H85.6406C85.6096 102.089 85.5845 102.112 85.5845 102.14V102.352C85.5845 102.38 85.6096 102.403 85.6406 102.403H86.1024C86.1334 102.403 86.1584 102.38 86.1584 102.352V102.14C86.1584 102.112 86.1334 102.089 86.1024 102.089Z" fill="#3F3D56"/>
<path d="M87.2503 102.089H86.7885C86.7575 102.089 86.7324 102.112 86.7324 102.14V102.352C86.7324 102.38 86.7575 102.403 86.7885 102.403H87.2503C87.2812 102.403 87.3063 102.38 87.3063 102.352V102.14C87.3063 102.112 87.2812 102.089 87.2503 102.089Z" fill="#3F3D56"/>
<path d="M88.3981 102.089H87.9363C87.9053 102.089 87.8802 102.112 87.8802 102.14V102.352C87.8802 102.38 87.9053 102.403 87.9363 102.403H88.3981C88.4291 102.403 88.4542 102.38 88.4542 102.352V102.14C88.4542 102.112 88.4291 102.089 88.3981 102.089Z" fill="#3F3D56"/>
<path d="M89.5459 102.089H89.0841C89.0531 102.089 89.028 102.112 89.028 102.14V102.352C89.028 102.38 89.0531 102.403 89.0841 102.403H89.5459C89.5768 102.403 89.6019 102.38 89.6019 102.352V102.14C89.6019 102.112 89.5768 102.089 89.5459 102.089Z" fill="#3F3D56"/>
<path d="M90.6937 102.089H90.2319C90.2009 102.089 90.1758 102.112 90.1758 102.14V102.352C90.1758 102.38 90.2009 102.403 90.2319 102.403H90.6937C90.7247 102.403 90.7498 102.38 90.7498 102.352V102.14C90.7498 102.112 90.7247 102.089 90.6937 102.089Z" fill="#3F3D56"/>
<path d="M91.8416 102.089H91.3798C91.3488 102.089 91.3237 102.112 91.3237 102.14V102.352C91.3237 102.38 91.3488 102.403 91.3798 102.403H91.8416C91.8726 102.403 91.8976 102.38 91.8976 102.352V102.14C91.8976 102.112 91.8726 102.089 91.8416 102.089Z" fill="#3F3D56"/>
<path d="M92.9894 102.089H92.5276C92.4966 102.089 92.4716 102.112 92.4716 102.14V102.352C92.4716 102.38 92.4966 102.403 92.5276 102.403H92.9894C93.0204 102.403 93.0455 102.38 93.0455 102.352V102.14C93.0455 102.112 93.0204 102.089 92.9894 102.089Z" fill="#3F3D56"/>
<path d="M94.1372 102.089H93.6754C93.6444 102.089 93.6193 102.112 93.6193 102.14V102.352C93.6193 102.38 93.6444 102.403 93.6754 102.403H94.1372C94.1681 102.403 94.1932 102.38 94.1932 102.352V102.14C94.1932 102.112 94.1681 102.089 94.1372 102.089Z" fill="#3F3D56"/>
<path d="M95.285 102.089H94.8232C94.7922 102.089 94.7672 102.112 94.7672 102.14V102.352C94.7672 102.38 94.7922 102.403 94.8232 102.403H95.285C95.316 102.403 95.3411 102.38 95.3411 102.352V102.14C95.3411 102.112 95.316 102.089 95.285 102.089Z" fill="#3F3D56"/>
<path d="M96.4329 102.089H95.9711C95.9401 102.089 95.915 102.112 95.915 102.14V102.352C95.915 102.38 95.9401 102.403 95.9711 102.403H96.4329C96.4639 102.403 96.489 102.38 96.489 102.352V102.14C96.489 102.112 96.4639 102.089 96.4329 102.089Z" fill="#3F3D56"/>
<path d="M97.5807 102.089H97.1188C97.0879 102.089 97.0628 102.112 97.0628 102.14V102.352C97.0628 102.38 97.0879 102.403 97.1188 102.403H97.5807C97.6116 102.403 97.6367 102.38 97.6367 102.352V102.14C97.6367 102.112 97.6116 102.089 97.5807 102.089Z" fill="#3F3D56"/>
<path d="M98.7285 102.089H98.2667C98.2357 102.089 98.2106 102.112 98.2106 102.14V102.352C98.2106 102.38 98.2357 102.403 98.2667 102.403H98.7285C98.7595 102.403 98.7845 102.38 98.7845 102.352V102.14C98.7845 102.112 98.7595 102.089 98.7285 102.089Z" fill="#3F3D56"/>
<path d="M99.8763 102.089H99.4145C99.3835 102.089 99.3585 102.112 99.3585 102.14V102.352C99.3585 102.38 99.3835 102.403 99.4145 102.403H99.8763C99.9073 102.403 99.9324 102.38 99.9324 102.352V102.14C99.9324 102.112 99.9073 102.089 99.8763 102.089Z" fill="#3F3D56"/>
<path d="M101.024 102.089H100.562C100.531 102.089 100.506 102.112 100.506 102.14V102.352C100.506 102.38 100.531 102.403 100.562 102.403H101.024C101.055 102.403 101.08 102.38 101.08 102.352V102.14C101.08 102.112 101.055 102.089 101.024 102.089Z" fill="#3F3D56"/>
<path d="M102.172 102.089H101.71C101.679 102.089 101.654 102.112 101.654 102.14V102.352C101.654 102.38 101.679 102.403 101.71 102.403H102.172C102.203 102.403 102.228 102.38 102.228 102.352V102.14C102.228 102.112 102.203 102.089 102.172 102.089Z" fill="#3F3D56"/>
<path d="M103.32 102.089H102.858C102.827 102.089 102.802 102.112 102.802 102.14V102.352C102.802 102.38 102.827 102.403 102.858 102.403H103.32C103.351 102.403 103.376 102.38 103.376 102.352V102.14C103.376 102.112 103.351 102.089 103.32 102.089Z" fill="#3F3D56"/>
<path d="M95.6294 102.718H91.1502C91.1192 102.718 91.0941 102.74 91.0941 102.769V102.981C91.0941 103.009 91.1192 103.032 91.1502 103.032H95.6294C95.6603 103.032 95.6854 103.009 95.6854 102.981V102.769C95.6854 102.74 95.6603 102.718 95.6294 102.718Z" fill="#3F3D56"/>
<path d="M108.337 77.4158H79.0305C79 77.4152 78.971 77.4037 78.9497 77.3838C78.9284 77.364 78.9164 77.3373 78.9164 77.3095C78.9164 77.2817 78.9284 77.255 78.9497 77.2351C78.971 77.2152 79 77.2037 79.0305 77.2031H108.337C108.368 77.2037 108.397 77.2152 108.418 77.2351C108.439 77.255 108.451 77.2817 108.451 77.3095C108.451 77.3373 108.439 77.364 108.418 77.3838C108.397 77.4037 108.368 77.4152 108.337 77.4158V77.4158Z" fill="#3F3D56"/>
<path d="M81.0254 76.6602C81.4026 76.6602 81.7084 76.375 81.7084 76.0232C81.7084 75.6714 81.4026 75.3862 81.0254 75.3862C80.6481 75.3862 80.3423 75.6714 80.3423 76.0232C80.3423 76.375 80.6481 76.6602 81.0254 76.6602Z" fill="#3F3D56"/>
<path d="M83.3849 76.6602C83.7621 76.6602 84.0679 76.375 84.0679 76.0232C84.0679 75.6714 83.7621 75.3862 83.3849 75.3862C83.0077 75.3862 82.7019 75.6714 82.7019 76.0232C82.7019 76.375 83.0077 76.6602 83.3849 76.6602Z" fill="#3F3D56"/>
<path d="M85.7443 76.6602C86.1216 76.6602 86.4274 76.375 86.4274 76.0232C86.4274 75.6714 86.1216 75.3862 85.7443 75.3862C85.3671 75.3862 85.0613 75.6714 85.0613 76.0232C85.0613 76.375 85.3671 76.6602 85.7443 76.6602Z" fill="#3F3D56"/>
<path d="M106.916 75.5437H105.241C105.207 75.5444 105.176 75.5569 105.153 75.5785C105.13 75.6002 105.117 75.6292 105.117 75.6594C105.117 75.6896 105.13 75.7187 105.153 75.7403C105.176 75.7619 105.207 75.7744 105.241 75.7751H106.916C106.95 75.7747 106.982 75.7623 107.005 75.7407C107.028 75.719 107.041 75.6898 107.041 75.6594C107.041 75.629 107.028 75.5998 107.005 75.5782C106.982 75.5565 106.95 75.5441 106.916 75.5437Z" fill="#3F3D56"/>
<path d="M106.916 75.9784H105.241C105.207 75.9791 105.176 75.9915 105.153 76.0132C105.129 76.0348 105.116 76.0638 105.116 76.0941C105.116 76.1244 105.129 76.1534 105.153 76.175C105.176 76.1967 105.207 76.2091 105.241 76.2098H106.916C106.95 76.2094 106.982 76.1971 107.005 76.1754C107.028 76.1538 107.042 76.1246 107.042 76.0941C107.042 76.0637 107.028 76.0344 107.005 76.0128C106.982 75.9911 106.95 75.9788 106.916 75.9784V75.9784Z" fill="#3F3D56"/>
<path d="M106.916 76.413H105.241C105.207 76.4137 105.176 76.4262 105.153 76.4478C105.13 76.4694 105.117 76.4984 105.117 76.5287C105.117 76.5589 105.13 76.5879 105.153 76.6096C105.176 76.6312 105.207 76.6437 105.241 76.6444H106.916C106.95 76.644 106.982 76.6316 107.005 76.6099C107.028 76.5883 107.041 76.5591 107.041 76.5287C107.041 76.4983 107.028 76.4691 107.005 76.4474C106.982 76.4258 106.95 76.4134 106.916 76.413V76.413Z" fill="#3F3D56"/>
<path d="M81.5575 79.8867H80.9553C80.7728 79.8867 80.6248 80.0217 80.6248 80.1883C80.6248 80.3549 80.7728 80.4899 80.9553 80.4899H81.5575C81.7401 80.4899 81.8881 80.3549 81.8881 80.1883C81.8881 80.0217 81.7401 79.8867 81.5575 79.8867Z" fill="#E6E6E6"/>
<path d="M88.4445 79.8867H87.8423C87.6597 79.8867 87.5117 80.0217 87.5117 80.1883C87.5117 80.3549 87.6597 80.4899 87.8423 80.4899H88.4445C88.627 80.4899 88.775 80.3549 88.775 80.1883C88.775 80.0217 88.627 79.8867 88.4445 79.8867Z" fill="#E6E6E6"/>
<path d="M90.3958 79.8867H89.7936C89.611 79.8867 89.463 80.0217 89.463 80.1883C89.463 80.3549 89.611 80.4899 89.7936 80.4899H90.3958C90.5783 80.4899 90.7263 80.3549 90.7263 80.1883C90.7263 80.0217 90.5783 79.8867 90.3958 79.8867Z" fill="#E6E6E6"/>
<path d="M86.5711 79.8364H82.8286C82.646 79.8364 82.498 79.9714 82.498 80.138C82.498 80.3046 82.646 80.4396 82.8286 80.4396H86.5711C86.7537 80.4396 86.9017 80.3046 86.9017 80.138C86.9017 79.9714 86.7537 79.8364 86.5711 79.8364Z" fill="#E6E6E6"/>
<path d="M95.7538 79.8364H92.0112C91.8287 79.8364 91.6807 79.9714 91.6807 80.138C91.6807 80.3046 91.8287 80.4396 92.0112 80.4396H95.7538C95.9364 80.4396 96.0844 80.3046 96.0844 80.138C96.0844 79.9714 95.9364 79.8364 95.7538 79.8364Z" fill="#E6E6E6"/>
<path d="M83.394 81.248H82.7918C82.6092 81.248 82.4612 81.3831 82.4612 81.5496C82.4612 81.7162 82.6092 81.8512 82.7918 81.8512H83.394C83.5766 81.8512 83.7246 81.7162 83.7246 81.5496C83.7246 81.3831 83.5766 81.248 83.394 81.248Z" fill="#E6E6E6"/>
<path d="M90.2809 81.248H89.6788C89.4962 81.248 89.3482 81.3831 89.3482 81.5496C89.3482 81.7162 89.4962 81.8512 89.6788 81.8512H90.2809C90.4635 81.8512 90.6115 81.7162 90.6115 81.5496C90.6115 81.3831 90.4635 81.248 90.2809 81.248Z" fill="#E6E6E6"/>
<path d="M92.2322 81.248H91.6301C91.4475 81.248 91.2995 81.3831 91.2995 81.5496C91.2995 81.7162 91.4475 81.8512 91.6301 81.8512H92.2322C92.4148 81.8512 92.5628 81.7162 92.5628 81.5496C92.5628 81.3831 92.4148 81.248 92.2322 81.248Z" fill="#E6E6E6"/>
<path d="M88.4077 81.1978H84.6651C84.4825 81.1978 84.3345 81.3328 84.3345 81.4993C84.3345 81.6659 84.4825 81.8009 84.6651 81.8009H88.4077C88.5902 81.8009 88.7382 81.6659 88.7382 81.4993C88.7382 81.3328 88.5902 81.1978 88.4077 81.1978Z" fill="#E6E6E6"/>
<path d="M97.5903 81.1978H93.8477C93.6652 81.1978 93.5172 81.3328 93.5172 81.4993C93.5172 81.6659 93.6652 81.8009 93.8477 81.8009H97.5903C97.7729 81.8009 97.9209 81.6659 97.9209 81.4993C97.9209 81.3328 97.7729 81.1978 97.5903 81.1978Z" fill="#E6E6E6"/>
<path d="M85.2305 82.6094H84.6283C84.4457 82.6094 84.2977 82.7444 84.2977 82.911C84.2977 83.0775 84.4457 83.2125 84.6283 83.2125H85.2305C85.413 83.2125 85.561 83.0775 85.561 82.911C85.561 82.7444 85.413 82.6094 85.2305 82.6094Z" fill="#E6E6E6"/>
<path d="M92.1175 82.6094H91.5153C91.3328 82.6094 91.1848 82.7444 91.1848 82.911C91.1848 83.0775 91.3328 83.2125 91.5153 83.2125H92.1175C92.3001 83.2125 92.4481 83.0775 92.4481 82.911C92.4481 82.7444 92.3001 82.6094 92.1175 82.6094Z" fill="#E6E6E6"/>
<path d="M94.0688 82.6094H93.4666C93.284 82.6094 93.136 82.7444 93.136 82.911C93.136 83.0775 93.284 83.2125 93.4666 83.2125H94.0688C94.2514 83.2125 94.3993 83.0775 94.3993 82.911C94.3993 82.7444 94.2514 82.6094 94.0688 82.6094Z" fill="#E6E6E6"/>
<path d="M90.2442 82.5591H86.5016C86.319 82.5591 86.171 82.6941 86.171 82.8607C86.171 83.0272 86.319 83.1622 86.5016 83.1622H90.2442C90.4267 83.1622 90.5747 83.0272 90.5747 82.8607C90.5747 82.6941 90.4267 82.5591 90.2442 82.5591Z" fill="#E6E6E6"/>
<path d="M99.4268 82.5591H95.6842C95.5016 82.5591 95.3536 82.6941 95.3536 82.8607C95.3536 83.0272 95.5016 83.1622 95.6842 83.1622H99.4268C99.6094 83.1622 99.7574 83.0272 99.7574 82.8607C99.7574 82.6941 99.6094 82.5591 99.4268 82.5591Z" fill="#E6E6E6"/>
<path d="M87.067 83.9707H86.4648C86.2823 83.9707 86.1343 84.1057 86.1343 84.2723C86.1343 84.4388 86.2823 84.5739 86.4648 84.5739H87.067C87.2496 84.5739 87.3976 84.4388 87.3976 84.2723C87.3976 84.1057 87.2496 83.9707 87.067 83.9707Z" fill="#E6E6E6"/>
<path d="M93.954 83.9707H93.3518C93.1692 83.9707 93.0212 84.1057 93.0212 84.2723C93.0212 84.4388 93.1692 84.5739 93.3518 84.5739H93.954C94.1366 84.5739 94.2846 84.4388 94.2846 84.2723C94.2846 84.1057 94.1366 83.9707 93.954 83.9707Z" fill="#E6E6E6"/>
<path d="M95.9053 83.9707H95.3031C95.1205 83.9707 94.9725 84.1057 94.9725 84.2723C94.9725 84.4388 95.1205 84.5739 95.3031 84.5739H95.9053C96.0878 84.5739 96.2358 84.4388 96.2358 84.2723C96.2358 84.1057 96.0878 83.9707 95.9053 83.9707Z" fill="#E6E6E6"/>
<path d="M92.0807 83.9204H88.3381C88.1556 83.9204 88.0076 84.0554 88.0076 84.222C88.0076 84.3885 88.1556 84.5236 88.3381 84.5236H92.0807C92.2633 84.5236 92.4113 84.3885 92.4113 84.222C92.4113 84.0554 92.2633 83.9204 92.0807 83.9204Z" fill="#E6E6E6"/>
<path d="M88.4445 89.3839H87.8423C87.6597 89.3839 87.5117 89.5189 87.5117 89.6855C87.5117 89.8521 87.6597 89.9871 87.8423 89.9871H88.4445C88.627 89.9871 88.775 89.8521 88.775 89.6855C88.775 89.5189 88.627 89.3839 88.4445 89.3839Z" fill="#E6E6E6"/>
<path d="M90.3958 89.3839H89.7936C89.611 89.3839 89.463 89.5189 89.463 89.6855C89.463 89.8521 89.611 89.9871 89.7936 89.9871H90.3958C90.5783 89.9871 90.7263 89.8521 90.7263 89.6855C90.7263 89.5189 90.5783 89.3839 90.3958 89.3839Z" fill="#E6E6E6"/>
<path d="M95.7538 89.4342H92.0112C91.8287 89.4342 91.6807 89.5692 91.6807 89.7358C91.6807 89.9023 91.8287 90.0374 92.0112 90.0374H95.7538C95.9364 90.0374 96.0844 89.9023 96.0844 89.7358C96.0844 89.5692 95.9364 89.4342 95.7538 89.4342Z" fill="#E6E6E6"/>
<path d="M81.5575 89.3839H80.9553C80.7728 89.3839 80.6248 89.5189 80.6248 89.6855C80.6248 89.8521 80.7728 89.9871 80.9553 89.9871H81.5575C81.7401 89.9871 81.8881 89.8521 81.8881 89.6855C81.8881 89.5189 81.7401 89.3839 81.5575 89.3839Z" fill="#E6E6E6"/>
<path d="M86.5711 89.4342H82.8286C82.646 89.4342 82.498 89.5692 82.498 89.7358C82.498 89.9023 82.646 90.0374 82.8286 90.0374H86.5711C86.7537 90.0374 86.9017 89.9023 86.9017 89.7358C86.9017 89.5692 86.7537 89.4342 86.5711 89.4342Z" fill="#E6E6E6"/>
<path d="M83.394 88.0226H82.7918C82.6092 88.0226 82.4612 88.1576 82.4612 88.3242C82.4612 88.4907 82.6092 88.6258 82.7918 88.6258H83.394C83.5766 88.6258 83.7246 88.4907 83.7246 88.3242C83.7246 88.1576 83.5766 88.0226 83.394 88.0226Z" fill="#E6E6E6"/>
<path d="M90.2809 88.0226H89.6788C89.4962 88.0226 89.3482 88.1576 89.3482 88.3242C89.3482 88.4907 89.4962 88.6258 89.6788 88.6258H90.2809C90.4635 88.6258 90.6115 88.4907 90.6115 88.3242C90.6115 88.1576 90.4635 88.0226 90.2809 88.0226Z" fill="#E6E6E6"/>
<path d="M92.2322 88.0226H91.6301C91.4475 88.0226 91.2995 88.1576 91.2995 88.3242C91.2995 88.4907 91.4475 88.6258 91.6301 88.6258H92.2322C92.4148 88.6258 92.5628 88.4907 92.5628 88.3242C92.5628 88.1576 92.4148 88.0226 92.2322 88.0226Z" fill="#E6E6E6"/>
<path d="M88.4077 88.0729H84.6651C84.4825 88.0729 84.3345 88.2079 84.3345 88.3745C84.3345 88.541 84.4825 88.676 84.6651 88.676H88.4077C88.5902 88.676 88.7382 88.541 88.7382 88.3745C88.7382 88.2079 88.5902 88.0729 88.4077 88.0729Z" fill="#E6E6E6"/>
<path d="M85.2305 86.6613H84.6283C84.4457 86.6613 84.2977 86.7963 84.2977 86.9628C84.2977 87.1294 84.4457 87.2644 84.6283 87.2644H85.2305C85.413 87.2644 85.561 87.1294 85.561 86.9628C85.561 86.7963 85.413 86.6613 85.2305 86.6613Z" fill="#E6E6E6"/>
<path d="M92.1175 86.6613H91.5153C91.3328 86.6613 91.1848 86.7963 91.1848 86.9628C91.1848 87.1294 91.3328 87.2644 91.5153 87.2644H92.1175C92.3001 87.2644 92.4481 87.1294 92.4481 86.9628C92.4481 86.7963 92.3001 86.6613 92.1175 86.6613Z" fill="#E6E6E6"/>
<path d="M94.0688 86.6613H93.4666C93.284 86.6613 93.136 86.7963 93.136 86.9628C93.136 87.1294 93.284 87.2644 93.4666 87.2644H94.0688C94.2514 87.2644 94.3993 87.1294 94.3993 86.9628C94.3993 86.7963 94.2514 86.6613 94.0688 86.6613Z" fill="#E6E6E6"/>
<path d="M90.2442 86.7115H86.5016C86.319 86.7115 86.171 86.8466 86.171 87.0131C86.171 87.1797 86.319 87.3147 86.5016 87.3147H90.2442C90.4267 87.3147 90.5747 87.1797 90.5747 87.0131C90.5747 86.8466 90.4267 86.7115 90.2442 86.7115Z" fill="#E6E6E6"/>
<path d="M87.067 85.2999H86.4648C86.2823 85.2999 86.1343 85.435 86.1343 85.6015C86.1343 85.7681 86.2823 85.9031 86.4648 85.9031H87.067C87.2496 85.9031 87.3976 85.7681 87.3976 85.6015C87.3976 85.435 87.2496 85.2999 87.067 85.2999Z" fill="#E6E6E6"/>
<path d="M93.954 85.2999H93.3518C93.1692 85.2999 93.0212 85.435 93.0212 85.6015C93.0212 85.7681 93.1692 85.9031 93.3518 85.9031H93.954C94.1366 85.9031 94.2846 85.7681 94.2846 85.6015C94.2846 85.435 94.1366 85.2999 93.954 85.2999Z" fill="#E6E6E6"/>
<path d="M95.9053 85.2999H95.3031C95.1205 85.2999 94.9725 85.435 94.9725 85.6015C94.9725 85.7681 95.1205 85.9031 95.3031 85.9031H95.9053C96.0878 85.9031 96.2358 85.7681 96.2358 85.6015C96.2358 85.435 96.0878 85.2999 95.9053 85.2999Z" fill="#E6E6E6"/>
<path d="M92.0807 85.3502H88.3381C88.1556 85.3502 88.0076 85.4852 88.0076 85.6518C88.0076 85.8184 88.1556 85.9534 88.3381 85.9534H92.0807C92.2633 85.9534 92.4113 85.8184 92.4113 85.6518C92.4113 85.4852 92.2633 85.3502 92.0807 85.3502Z" fill="#E6E6E6"/>
<path d="M108.689 109.05C108.619 109.083 108.547 109.115 108.477 109.147C106.664 109.974 105.213 110.444 103.228 110.959C103.061 109.252 102.899 106.252 102.742 104.392C102.7 103.91 102.659 103.504 102.619 103.218C102.609 103.066 102.575 102.917 102.518 102.773L102.525 103.218L102.542 104.392L102.642 111.106C100.173 111.702 97.6372 112.035 95.0846 112.1C94.9514 112.103 94.8206 112.105 94.6943 112.107C94.6495 112.108 94.6059 112.109 94.5623 112.109C94.4188 112.11 94.2765 112.111 94.133 112.111C91.443 112.113 88.7627 111.816 86.151 111.228C86.2073 109.539 86.2635 106.573 86.3175 104.392C86.3289 103.966 86.3393 103.569 86.3507 103.218C86.3726 102.469 86.3955 101.928 86.4173 101.747C86.398 101.779 86.383 101.813 86.3726 101.849C86.2662 102.3 86.1938 102.758 86.1556 103.218C86.1154 103.569 86.0753 103.966 86.0351 104.392C85.8216 106.657 85.5989 109.737 85.3694 111.043C84.0029 110.703 82.6621 110.282 81.3554 109.783C80.6667 109.521 79.9903 109.239 79.326 108.936C79.4523 108.182 79.5843 107.337 79.7198 106.461C79.8254 105.781 79.9344 105.082 80.0457 104.392C80.2179 103.326 80.3947 102.281 80.5737 101.361C80.8354 100.016 81.104 98.9355 81.3703 98.4392C81.6228 97.968 81.8754 97.503 82.1199 97.058C82.2048 96.9019 82.2897 96.748 82.3724 96.5982C82.3919 96.5626 82.4114 96.5281 82.4309 96.4935C82.6065 96.1783 82.7764 95.8767 82.9383 95.594C83.0771 95.3521 83.2092 95.1238 83.3343 94.9133C83.6373 94.4023 83.8944 93.995 84.0849 93.7374C84.8815 92.635 86.0674 91.8143 87.4458 91.4116L87.4802 91.4032L87.5043 91.4126L89.8516 90.755L90.1948 90.6587L90.4255 90.5937L91.2382 90.0293L91.6801 89.7225L92.0945 89.4345L92.9048 88.8722L97.922 89.1539L98.8988 91.2995L101.087 92.0294L101.124 92.0137L101.158 92.0012L101.192 92.0095C102.57 92.4126 103.756 93.2332 104.553 94.3353C104.661 94.483 104.792 94.6777 104.94 94.9133C105.066 95.1134 105.204 95.3416 105.353 95.594C105.565 95.9532 105.797 96.3585 106.043 96.7972C106.097 96.8936 106.152 96.992 106.207 97.0915C106.309 97.2758 106.413 97.4639 106.518 97.6559C106.763 98.1009 107.015 98.5659 107.268 99.0382C107.487 99.4476 107.708 100.29 107.926 101.361C108.107 102.251 108.286 103.3 108.459 104.392C108.686 105.808 108.444 107.504 108.65 108.806C108.662 108.889 108.676 108.97 108.689 109.05Z" fill="#3F3D56"/>
<path d="M94.2037 87.1595C97.4263 87.1595 100.039 84.7761 100.039 81.836C100.039 78.896 97.4263 76.5126 94.2037 76.5126C90.981 76.5126 88.3685 78.896 88.3685 81.836C88.3685 84.7761 90.981 87.1595 94.2037 87.1595Z" fill="#A0616A"/>
<path d="M103.826 74.7814C103.711 74.5357 103.558 74.3065 103.371 74.1007C102.485 73.1132 100.873 72.6787 99.219 73.8473C98.9006 73.7824 98.5687 73.7998 98.2606 73.8976C98.1151 73.9456 97.9788 74.0142 97.8565 74.1007C97.6061 74.279 97.4107 74.5135 97.2895 74.7814C97.2247 74.9229 97.1822 75.072 97.1633 75.2243C96.7544 75.0305 96.3217 74.8818 95.8742 74.7814C94.7764 74.5323 93.6284 74.5323 92.5306 74.7814C92.1788 74.8626 91.8401 74.9851 91.5228 75.1458C90.9856 75.4285 90.6769 75.7856 90.6218 76.1825C89.847 76.2223 89.0412 76.594 88.4409 77.2035C88.3732 77.2716 88.3078 77.3428 88.2469 77.4161C87.7421 78.0187 87.4708 78.7572 87.4756 79.5157V79.6487H87.6214C88.0208 79.6483 88.4164 79.7187 88.7864 79.856C89.0261 79.9439 89.2532 80.0581 89.4625 80.1963C89.5994 80.285 89.7287 80.383 89.8493 80.4895C90.1289 80.7365 90.3657 81.0207 90.5518 81.3325C91.0286 82.1205 91.194 83.0341 91.0201 83.9201C90.9802 84.1252 90.9218 84.3269 90.8456 84.5233C90.7372 84.8034 90.5943 85.0714 90.4198 85.3223C90.4129 85.3317 90.4071 85.3411 90.4002 85.3505C90.3233 85.4626 90.2499 85.5767 90.181 85.6919C90.1294 85.7778 90.0812 85.8657 90.0364 85.9537C89.9056 86.1985 89.7951 86.4519 89.7058 86.7119C89.5461 87.1715 89.4519 87.6481 89.4257 88.1297C89.4177 88.2575 89.4154 88.3852 89.42 88.513C89.4268 88.8423 89.4664 89.1704 89.5382 89.4932C89.5486 89.5371 89.5589 89.5801 89.5692 89.6241L89.653 89.9581L89.8516 90.755L89.9893 91.3037L90.1167 91.8126L90.305 91.5666C90.3693 91.4828 90.5311 91.2252 90.748 90.8608C90.8915 90.6231 91.058 90.3393 91.2382 90.0293C91.4895 89.5947 91.765 89.1099 92.0347 88.6261C92.1438 88.4303 92.2517 88.2355 92.3562 88.0449C92.5536 87.6836 92.7395 87.3349 92.8991 87.025C93.046 86.7391 93.1711 86.4857 93.2641 86.2825C93.2928 86.4155 93.3169 86.5506 93.3352 86.6867C93.3559 86.825 93.3708 86.9653 93.3789 87.1056C93.3812 87.1265 93.3823 87.1485 93.3835 87.1695L93.388 87.2553L93.3892 87.2805L93.5109 87.2951C94.2126 87.3637 94.9201 87.3686 95.6229 87.3098H95.624C96.5551 87.2458 97.4685 87.0439 98.3283 86.7119C98.8166 86.5186 99.2726 86.2633 99.6827 85.9537C99.8744 85.809 100.053 85.6507 100.218 85.4804C100.259 85.4375 100.299 85.3945 100.338 85.3505C100.565 85.0958 100.76 84.8183 100.918 84.5233C101.024 84.3286 101.113 84.127 101.186 83.9201C101.627 82.7022 101.602 81.1828 101.111 79.3774C101.243 79.3541 101.37 79.3095 101.486 79.2455C101.846 79.0476 102.097 78.6549 102.175 78.1753L102.299 78.2057C102.738 78.0189 103.13 77.7499 103.448 77.4161C103.511 77.3481 103.57 77.2772 103.624 77.2035C104.186 76.4495 104.19 75.5448 103.826 74.7814Z" fill="#2F2E41"/>
<path opacity="0.2" d="M84.6428 101.356L85.6181 97.9222L86.4793 100.885L84.6428 101.356Z" fill="black"/>
<path d="M110.596 99.1188C110.247 103.504 110.609 105.435 108.683 109.051C106.93 109.834 105.105 110.472 103.228 110.959C103.033 111.009 102.838 111.058 102.642 111.106C100.173 111.702 97.6372 112.035 95.0845 112.1C94.9514 112.103 94.8205 112.105 94.6943 112.107C94.6495 112.108 94.6059 112.109 94.5623 112.109C94.4188 112.11 94.2765 112.111 94.133 112.111C91.443 112.113 88.7627 111.817 86.151 111.228C85.8893 111.17 85.6288 111.108 85.3693 111.043C84.0029 110.703 82.6621 110.282 81.3554 109.783C80.6667 109.521 79.9902 109.239 79.326 108.936C79.1757 108.867 79.0253 108.798 78.8772 108.727C78.1162 107.506 77.6835 106.021 77.6743 104.236C78.2012 101.162 109.432 96.4674 110.596 99.1188Z" fill="#2F2E41"/>
<path opacity="0.2" d="M110.595 99.8698C110.613 99.5983 110.633 99.3178 110.656 99.0258C109.492 96.3744 78.2613 101.069 77.7344 104.143C77.7359 104.425 77.7491 104.699 77.7713 104.966C79.0472 101.931 108.717 97.4695 110.595 99.8698Z" fill="black"/>
<path d="M79.6813 87.4137C79.6889 87.3187 79.6742 87.2234 79.638 87.1341C79.6018 87.0448 79.5451 86.9636 79.4717 86.896C79.3983 86.8284 79.3098 86.7759 79.2123 86.7421C79.1147 86.7083 79.0104 86.6939 78.9062 86.7C78.8674 86.7013 78.8288 86.7057 78.7909 86.7131L74.2269 87.6538C74.1249 87.6763 74.0292 87.7181 73.946 87.7765C73.8628 87.8348 73.7939 87.9084 73.7438 87.9925C73.6769 87.9948 73.6104 88.0036 73.5455 88.0188C73.4035 88.0482 73.2692 88.1028 73.1503 88.1795C73.0314 88.2562 72.9302 88.3536 72.8526 88.466C72.7749 88.5783 72.7223 88.7036 72.6977 88.8345C72.673 88.9655 72.6769 89.0996 72.7091 89.2291C72.7413 89.3587 72.8012 89.4812 72.8853 89.5897C72.9694 89.6982 73.0761 89.7905 73.1992 89.8613C73.448 90.0044 73.749 90.0515 74.0358 89.9922C74.1991 89.9576 74.3518 89.8902 74.4828 89.7949L76.0294 93.7679C76.1067 93.8924 76.226 93.9908 76.3696 94.0483C76.5132 94.1058 76.6734 94.1193 76.8261 94.0869L79.7931 93.4752C79.9447 93.4428 80.0811 93.3674 80.1828 93.2599C80.2845 93.1523 80.3462 93.0181 80.3591 92.8766L79.6813 87.4137ZM73.9673 89.7093C73.7624 89.7515 73.5476 89.7178 73.3699 89.6157C73.1923 89.5136 73.0662 89.3514 73.0195 89.1646C72.9727 88.9778 73.009 88.7817 73.1205 88.6194C73.2319 88.457 73.4094 88.3416 73.614 88.2984C73.6284 88.2951 73.6429 88.2984 73.6573 88.2951C73.6562 88.4149 73.6898 88.5329 73.7546 88.6371L74.3206 89.5383C74.2221 89.6236 74.0999 89.6827 73.9673 89.7093Z" fill="#2F2E41"/>
<path d="M78.9063 86.7C78.9495 87.2262 77.9618 87.8314 76.6387 88.0715C75.4238 88.2984 74.3351 88.1405 74.0286 87.7261C74.0902 87.6928 74.1571 87.6684 74.2269 87.6538L78.7909 86.7131C78.8289 86.7057 78.8675 86.7013 78.9063 86.7V86.7Z" fill="#3F3D56"/>
<path d="M75.7498 100.059L78.3133 98.8893L76.1771 93.6271L75.6141 90.9734C75.5409 90.6286 75.3699 90.3074 75.118 90.0418C74.8662 89.7762 74.5423 89.5756 74.1789 89.46C73.8154 89.3444 73.4251 89.3178 73.0468 89.383C72.6686 89.4481 72.3157 89.6027 72.0234 89.8312V89.8312C71.5903 90.1699 71.3184 90.6488 71.265 91.1669C71.2116 91.685 71.381 92.2018 71.7373 92.6081L73.8272 94.9914L75.7498 100.059Z" fill="#A0616A"/>
<path d="M78.3133 97.9149L74.8953 99.474L77.4892 106.889C77.6755 107.421 78.0094 107.901 78.4586 108.281C78.9078 108.661 79.457 108.929 80.053 109.058V109.058C80.7879 109.218 81.5594 109.16 82.2557 108.893C82.9519 108.625 83.5368 108.163 83.9255 107.572L90.8038 96.8157C91.2912 96.0745 91.4417 95.1889 91.223 94.3479C91.0044 93.5069 90.4339 92.7772 89.6335 92.3147V92.3147C89.203 92.066 88.72 91.9028 88.2158 91.8356C87.7116 91.7685 87.1975 91.7989 86.7071 91.925C86.2166 92.0511 85.7608 92.27 85.3692 92.5675C84.9776 92.8649 84.6591 93.2343 84.4343 93.6515L80.236 101.813L78.3133 97.9149Z" fill="#3F3D56"/>
<path d="M77.2562 91.2138C77.2498 91.2138 77.2435 91.2128 77.2375 91.2109L76.4913 90.9765C76.4822 90.9737 76.4741 90.9689 76.4677 90.9625C76.4612 90.9561 76.4566 90.9484 76.4543 90.9399C76.4519 90.9315 76.4519 90.9227 76.4543 90.9142C76.4566 90.9058 76.4612 90.8981 76.4677 90.8917L77.0227 90.3404C77.0278 90.3353 77.0339 90.3311 77.0408 90.3282C77.0476 90.3253 77.055 90.3236 77.0625 90.3233C77.0701 90.323 77.0776 90.324 77.0847 90.3264C77.0918 90.3287 77.0983 90.3324 77.1039 90.337C77.1095 90.3417 77.114 90.3473 77.1172 90.3535C77.1203 90.3598 77.1221 90.3666 77.1224 90.3734C77.1227 90.3803 77.1216 90.3872 77.1189 90.3937C77.1163 90.4001 77.1123 90.4061 77.1072 90.4111L76.6115 90.9035L77.2748 91.1119C77.2877 91.116 77.2985 91.124 77.3055 91.1347C77.3124 91.1453 77.315 91.1578 77.3128 91.1701C77.3105 91.1823 77.3036 91.1934 77.2933 91.2014C77.2829 91.2094 77.2698 91.2138 77.2562 91.2138V91.2138Z" fill="#6C63FF"/>
<path d="M78.279 91.0229C78.2676 91.0229 78.2564 91.0197 78.2469 91.0139C78.2375 91.0081 78.2301 90.9998 78.2258 90.9901C78.2215 90.9805 78.2205 90.9698 78.2229 90.9596C78.2252 90.9494 78.2309 90.9401 78.2391 90.9329L78.7435 90.4879L78.0659 90.2332C78.059 90.2306 78.0526 90.2267 78.0473 90.2219C78.0419 90.217 78.0377 90.2113 78.0348 90.2049C78.0319 90.1986 78.0304 90.1918 78.0303 90.1849C78.0303 90.178 78.0318 90.1712 78.0347 90.1648C78.0375 90.1585 78.0418 90.1527 78.0471 90.1478C78.0524 90.1429 78.0587 90.1391 78.0657 90.1364C78.0727 90.1338 78.0801 90.1324 78.0877 90.1324C78.0952 90.1324 78.1027 90.1338 78.1097 90.1364L78.8683 90.4216C78.8771 90.425 78.8849 90.4302 78.8909 90.4369C78.8969 90.4437 78.901 90.4517 78.9028 90.4602C78.9046 90.4687 78.904 90.4775 78.9012 90.4858C78.8983 90.4941 78.8932 90.5016 78.8863 90.5077L78.3189 91.0081C78.3082 91.0176 78.2939 91.0229 78.279 91.0229V91.0229Z" fill="#6C63FF"/>
<path d="M77.4128 91.5341C77.407 91.5341 77.4013 91.5333 77.3959 91.5317C77.3887 91.5297 77.382 91.5264 77.3762 91.522C77.3704 91.5177 77.3655 91.5123 77.362 91.5062C77.3585 91.5001 77.3563 91.4935 77.3556 91.4866C77.3549 91.4798 77.3557 91.4729 77.3579 91.4663L77.8876 89.8955C77.8921 89.8823 77.9022 89.8712 77.9157 89.8648C77.9291 89.8583 77.9448 89.857 77.9593 89.8611C77.9738 89.8652 77.986 89.8743 77.9931 89.8866C78.0002 89.8988 78.0018 89.9132 77.9973 89.9264L77.4676 91.4972C77.464 91.5079 77.4567 91.5172 77.4469 91.5239C77.437 91.5305 77.425 91.5341 77.4128 91.5341V91.5341Z" fill="#6C63FF"/>
</g>
<g clip-path="url(#clip1_3_162)">
<path d="M25.769 54.4329H15.3474V67.8619H25.769V54.4329Z" fill="#CCCCCC"/>
<path d="M10.0418 88.0601H4.73624L4.16779 82.8195H10.6103L10.0418 88.0601Z" fill="#E6E6E6"/>
<path d="M20.6956 84.2642L20.5165 87.0849C20.5084 87.2125 20.5241 87.3407 20.5625 87.4608C20.6009 87.581 20.6612 87.6902 20.7393 87.7813C20.8173 87.8724 20.9114 87.9432 21.0151 87.989C21.1189 88.0347 21.2299 88.0544 21.3408 88.0466L22.598 87.9589C22.6563 87.9548 22.713 87.936 22.7643 87.9038C22.8155 87.8716 22.8599 87.8268 22.8944 87.7725C22.9289 87.7183 22.9527 87.656 22.9639 87.59C22.9751 87.524 22.9736 87.4559 22.9595 87.3907L22.2616 84.174L20.6956 84.2642Z" fill="#E6E6E6"/>
<path d="M31.2115 85.9321C32.6912 86.331 33.7482 86.898 34.4425 87.6653C34.6898 87.9365 35.0134 88.0963 35.3543 88.1157C35.7898 88.1421 36.1458 88.0858 36.4134 87.9481H36.4135C36.482 87.9133 36.5412 87.8579 36.585 87.7878C36.6287 87.7178 36.6554 87.6355 36.6622 87.5495C36.6703 87.4622 36.658 87.3739 36.6265 87.2939C36.595 87.2139 36.5456 87.1451 36.4832 87.0946L32.974 84.2172L31.4834 84.9043L31.1357 85.305C31.0981 85.3484 31.0697 85.4013 31.0528 85.4595C31.0358 85.5177 31.0309 85.5796 31.0382 85.6403C31.0456 85.7011 31.065 85.7591 31.0951 85.8097C31.1252 85.8603 31.165 85.9022 31.2115 85.9321H31.2115Z" fill="#E6E6E6"/>
<path d="M26.658 39.8786L16.6273 39.7716C16.6525 38.0879 16.9925 36.4347 17.7355 34.9552C18.2235 33.9836 18.2129 32.9262 18.0953 32.0353C17.9139 30.6605 18.3359 29.2539 19.2737 28.3787C19.9903 27.7088 20.8948 27.3639 21.8168 27.4091L22.0116 27.4184C22.646 27.4488 23.2636 27.6624 23.8078 28.0395C24.3519 28.4167 24.8051 28.9453 25.1258 29.5769C25.4517 30.2511 25.5831 31.0273 25.5011 31.7933C25.4375 32.514 25.5896 33.2421 25.9455 33.9771C26.5594 35.5911 26.6924 37.6563 26.658 39.8786Z" fill="#2F2E41"/>
<path d="M33.369 84.3672L31.4004 84.9591L21.814 60.892L22.4132 84.3672H20.4445C18.3409 73.3228 14.543 60.5763 16.2505 56.552L26.436 55.8616L33.369 84.3672Z" fill="#6C63FF"/>
<path d="M21.7284 35.8385C23.1939 35.8385 24.3818 34.4696 24.3818 32.7808C24.3818 31.0921 23.1939 29.7231 21.7284 29.7231C20.263 29.7231 19.0751 31.0921 19.0751 32.7808C19.0751 34.4696 20.263 35.8385 21.7284 35.8385Z" fill="#A0616A"/>
<path d="M24.0395 38.4032L19.6743 38.1073C20.1021 36.9758 20.2729 35.8862 20.1022 34.8523H23.3547C23.3474 35.6461 23.6901 37.0192 24.0395 38.4032Z" fill="#A0616A"/>
<path d="M26.7784 56.7492L17.1921 57.5384L18.1764 37.9592L19.8454 37.4167L21.7284 37.9099L23.6114 36.8248L24.8097 37.3181L26.7784 56.7492Z" fill="#6C63FF"/>
<path d="M18.8183 70.8542L12.2705 69.1281C14.2175 61.6877 17.7252 44.6663 16.5929 38.6004L20.0166 36.825L18.8183 70.8542Z" fill="#E6E6E6"/>
<path d="M15.6514 49.3516L13.1692 47.5762L15.2861 40.4315C15.5222 39.6943 15.9744 39.0753 16.5645 38.6816L17.2776 38.2058L16.8497 45.4062L15.6514 49.3516Z" fill="#E6E6E6"/>
<path d="M32.4703 69.2267C30.4037 70.6046 25.2378 71.3727 22.9695 70.4103C22.8026 63.6879 22.4753 44.6725 23.5259 36.6277L27.2919 38.4031L26.9496 43.7294C25.1491 48.2858 30.3773 64.1557 32.4703 69.2267Z" fill="#E6E6E6"/>
<path d="M32.1707 48.464L29.8597 47.5762L26.7784 43.5321L27.292 38.4031L32.4275 46.6885L32.1707 48.464Z" fill="#E6E6E6"/>
<path d="M24.9281 52.3032C24.9659 52.4944 25.068 52.6605 25.2119 52.7652C25.3559 52.8698 25.5299 52.9044 25.696 52.8613L27.6577 52.3494L27.3742 50.9064L25.4124 51.4182C25.2464 51.4616 25.1021 51.5792 25.0112 51.7451C24.9204 51.9111 24.8905 52.1118 24.9281 52.3032V52.3032Z" fill="#A0616A"/>
<path d="M24.0394 31.9918C22.5657 31.2934 21.1101 31.2429 19.6742 31.8931L19.0751 29.4272H24.553L24.0394 31.9918Z" fill="#2F2E41"/>
<path d="M26.6928 50.6339L27.8055 53.0011C29.6771 52.3996 31.2991 50.5032 32.8555 48.2666L32.4275 46.6885L29.7741 47.4776L26.6928 50.6339Z" fill="#E6E6E6"/>
<path d="M25.8797 45.7515H25.5373C25.5373 40.1713 24.5403 36.2825 23.5687 36.2825L23.4831 35.8879C24.3544 35.8879 24.91 37.5064 25.2225 38.8642C25.6463 40.7049 25.8797 43.1508 25.8797 45.7515Z" fill="#3F3D56"/>
<path d="M18.0052 44.3706H17.6628C17.6628 39.26 18.6668 36.0852 20.145 36.0852L20.0594 36.4797C19.0369 36.4797 18.0052 38.9197 18.0052 44.3706Z" fill="#3F3D56"/>
<path d="M25.7085 46.8365C26.1812 46.8365 26.5645 46.3949 26.5645 45.8501C26.5645 45.3054 26.1812 44.8638 25.7085 44.8638C25.2358 44.8638 24.8526 45.3054 24.8526 45.8501C24.8526 46.3949 25.2358 46.8365 25.7085 46.8365Z" fill="#3F3D56"/>
<path d="M16.6357 46.7379H16.2933C16.2933 45.3238 16.9845 44.1733 17.834 44.1733V44.5679C17.1733 44.5679 16.6357 45.5413 16.6357 46.7379Z" fill="#3F3D56"/>
<path d="M19.3746 46.7379H19.0323C19.0323 45.5413 18.4947 44.5679 17.834 44.5679V44.1733C18.6835 44.1733 19.3746 45.3238 19.3746 46.7379Z" fill="#3F3D56"/>
<path d="M19.2035 47.231C19.3925 47.231 19.5458 47.0543 19.5458 46.8364C19.5458 46.6185 19.3925 46.4419 19.2035 46.4419C19.0144 46.4419 18.8611 46.6185 18.8611 46.8364C18.8611 47.0543 19.0144 47.231 19.2035 47.231Z" fill="#3F3D56"/>
<path d="M16.4645 47.231C16.6536 47.231 16.8069 47.0543 16.8069 46.8364C16.8069 46.6185 16.6536 46.4419 16.4645 46.4419C16.2754 46.4419 16.1221 46.6185 16.1221 46.8364C16.1221 47.0543 16.2754 47.231 16.4645 47.231Z" fill="#3F3D56"/>
<path d="M12.1848 43.2084L14.321 43.6479L19.2034 51.6482L16.6096 50.9448L12.1848 43.2084Z" fill="#6C63FF"/>
<path d="M11.806 43.1105C11.7734 43.111 11.7416 43.1217 11.7139 43.1413C11.6861 43.1608 11.6634 43.1887 11.6482 43.2218C11.6329 43.255 11.6257 43.2922 11.6272 43.3297C11.6288 43.3672 11.639 43.4035 11.6569 43.4348L16.2208 51.4145C16.2462 51.4592 16.2856 51.4908 16.3307 51.503L18.4541 52.0787C18.4899 52.0885 18.5274 52.0854 18.5617 52.07C18.596 52.0545 18.6253 52.0275 18.6459 51.9924C18.6665 51.9572 18.6774 51.9157 18.677 51.8734C18.6767 51.831 18.6652 51.7897 18.644 51.755L13.6332 43.5446C13.6196 43.5222 13.6023 43.5031 13.5823 43.4885C13.5624 43.4738 13.5401 43.4638 13.5167 43.4591L11.8402 43.114C11.8289 43.1117 11.8175 43.1105 11.806 43.1105V43.1105Z" fill="#A0616A"/>
<path d="M14.653 48.8158L14.7798 50.2881L16.7814 50.0592C16.9508 50.0398 17.1066 49.9437 17.2145 49.7919C17.3224 49.6401 17.3736 49.4452 17.3568 49.25C17.34 49.0547 17.2565 48.8752 17.1248 48.7508C16.9931 48.6265 16.824 48.5675 16.6546 48.5869L14.653 48.8158Z" fill="#FFB9B9"/>
<path d="M12.9125 48.6452C12.9154 49.1473 13.0903 49.6276 13.3992 49.9816C13.7081 50.3356 14.1259 50.5346 14.5616 50.5352H14.8907L15.1303 48.2342L13.1464 47.4111L12.9125 48.6452Z" fill="#E6E6E6"/>
<path d="M81.9511 25.1727H42.9173V48.8647H81.9511V25.1727Z" fill="#E6E6E6"/>
<path d="M44.0542 47.5546H80.8142V26.4829H44.0542V47.5546Z" fill="white"/>
<path d="M59.9709 29.5399H46.8965V44.6067H59.9709V29.5399Z" fill="#3F3D56"/>
<path d="M56.8444 36.4182C57.0537 36.4182 57.2234 36.2227 57.2234 35.9815C57.2234 35.7403 57.0537 35.5448 56.8444 35.5448C56.6351 35.5448 56.4655 35.7403 56.4655 35.9815C56.4655 36.2227 56.6351 36.4182 56.8444 36.4182Z" fill="#6C63FF"/>
<path d="M55.4233 34.8897C55.6326 34.8897 55.8023 34.6941 55.8023 34.453C55.8023 34.2118 55.6326 34.0162 55.4233 34.0162C55.214 34.0162 55.0443 34.2118 55.0443 34.453C55.0443 34.6941 55.214 34.8897 55.4233 34.8897Z" fill="#6C63FF"/>
<path d="M55.2338 35.9815C55.0944 35.9815 54.9577 36.0261 54.839 36.1104C54.7344 35.9292 54.6115 35.7629 54.4728 35.6152C54.4744 35.5919 54.4759 35.5685 54.4759 35.5447C54.476 35.3734 54.4323 35.2058 54.3503 35.0628C54.2683 34.9198 54.1516 34.8079 54.0147 34.7408C53.8779 34.6738 53.7269 34.6547 53.5807 34.6859C53.4345 34.7171 53.2994 34.7972 53.1924 34.9162C52.9895 34.883 52.7836 34.8809 52.5802 34.9101C52.5803 34.9032 52.5811 34.8966 52.5811 34.8897C52.5812 34.7435 52.5495 34.5996 52.4889 34.4711C52.4283 34.3427 52.3406 34.2339 52.234 34.1546C52.1274 34.0754 52.0053 34.0282 51.8787 34.0175C51.7522 34.0068 51.6254 34.0328 51.5099 34.0932C51.3943 34.1536 51.2938 34.2465 51.2175 34.3633C51.1413 34.4801 51.0916 34.6171 51.0732 34.7618C51.0548 34.9064 51.0682 35.0541 51.1121 35.1912C51.1561 35.3284 51.2292 35.4506 51.3248 35.5467C51.1979 35.672 51.0829 35.8123 50.9814 35.9653C50.8879 35.8756 50.777 35.8131 50.6581 35.7833C50.5391 35.7534 50.4157 35.757 50.2983 35.7937C50.1808 35.8304 50.0727 35.8992 49.9832 35.9942C49.8937 36.0892 49.8253 36.2077 49.784 36.3396C49.7426 36.4715 49.7294 36.6129 49.7454 36.752C49.7615 36.891 49.8064 37.0235 49.8763 37.1383C49.9462 37.2531 50.0391 37.3468 50.1471 37.4115C50.2551 37.4762 50.375 37.51 50.4967 37.51L50.4991 37.5098C50.4979 37.5461 50.4967 37.5825 50.4967 37.6192C50.4968 37.8389 50.5198 38.0579 50.5653 38.2713C50.34 38.369 50.14 38.531 49.984 38.7422C49.8279 38.9533 49.721 39.2067 49.6733 39.4786C49.6255 39.7504 49.6385 40.0318 49.7109 40.2963C49.7834 40.5607 49.913 40.7997 50.0875 40.9906C50.262 41.1816 50.4758 41.3183 50.7088 41.388C50.9418 41.4576 51.1863 41.4579 51.4194 41.3889C51.6524 41.3198 51.8665 41.1836 52.0414 40.9931C52.2163 40.8026 52.3463 40.5639 52.4193 40.2996C52.9465 40.4164 53.4925 40.3231 53.9676 40.035C54.0161 40.1666 54.0919 40.2825 54.1884 40.3724C54.2848 40.4624 54.3989 40.5237 54.5207 40.551C54.6426 40.5782 54.7683 40.5706 54.887 40.5288C55.0056 40.487 55.1136 40.4123 55.2013 40.3112C55.2891 40.21 55.3539 40.0857 55.3902 39.9489C55.4265 39.8122 55.4331 39.6673 55.4094 39.5269C55.3858 39.3865 55.3325 39.255 55.2545 39.1438C55.1764 39.0327 55.0758 38.9454 54.9616 38.8895C55.1258 38.5305 55.218 38.1337 55.2314 37.7282L55.2338 37.7283C55.4349 37.7283 55.6276 37.6363 55.7698 37.4725C55.9119 37.3087 55.9918 37.0866 55.9918 36.8549C55.9918 36.6233 55.9119 36.4011 55.7698 36.2373C55.6276 36.0735 55.4349 35.9815 55.2338 35.9815V35.9815Z" fill="#6C63FF"/>
<path d="M55.0443 29.2124H51.2546V29.8675H55.0443V29.2124Z" fill="#E6E6E6"/>
<path d="M76.6455 29.5399H63.5711V44.6067H76.6455V29.5399Z" fill="#3F3D56"/>
<path d="M72.5906 39.7591C72.6848 39.7591 72.7611 39.6711 72.7611 39.5626C72.7611 39.4541 72.6848 39.3661 72.5906 39.3661C72.4964 39.3661 72.42 39.4541 72.42 39.5626C72.42 39.6711 72.4964 39.7591 72.5906 39.7591Z" fill="#6C63FF"/>
<path d="M71.9511 39.0713C72.0453 39.0713 72.1217 38.9833 72.1217 38.8747C72.1217 38.7662 72.0453 38.6782 71.9511 38.6782C71.8569 38.6782 71.7806 38.7662 71.7806 38.8747C71.7806 38.9833 71.8569 39.0713 71.9511 39.0713Z" fill="#6C63FF"/>
<path d="M71.8659 39.5626C71.8031 39.5626 71.7416 39.5827 71.6882 39.6206C71.6411 39.539 71.5858 39.4642 71.5234 39.3978C71.5241 39.3873 71.5248 39.3768 71.5248 39.3661C71.5248 39.2889 71.5052 39.2135 71.4683 39.1492C71.4314 39.0848 71.3789 39.0345 71.3173 39.0043C71.2557 38.9741 71.1878 38.9655 71.1219 38.9796C71.0561 38.9936 70.9954 39.0296 70.9472 39.0832C70.8559 39.0683 70.7633 39.0673 70.6717 39.0804C70.6718 39.0774 70.6721 39.0744 70.6721 39.0713C70.6722 39.0055 70.6579 38.9407 70.6306 38.8829C70.6034 38.8251 70.5639 38.7762 70.516 38.7405C70.468 38.7048 70.413 38.6836 70.3561 38.6788C70.2991 38.674 70.2421 38.6857 70.1901 38.7129C70.1381 38.7401 70.0929 38.7819 70.0585 38.8344C70.0242 38.887 70.0019 38.9486 69.9936 39.0137C69.9853 39.0788 69.9913 39.1453 70.0111 39.207C70.0309 39.2687 70.0638 39.3237 70.1068 39.3669C70.0497 39.4233 69.9979 39.4864 69.9523 39.5553C69.9102 39.5149 69.8603 39.4868 69.8068 39.4734C69.7532 39.46 69.6977 39.4616 69.6448 39.4781C69.592 39.4946 69.5434 39.5256 69.5031 39.5683C69.4628 39.6111 69.432 39.6644 69.4134 39.7237C69.3948 39.7831 69.3888 39.8467 69.3961 39.9093C69.4033 39.9719 69.4235 40.0315 69.455 40.0832C69.4864 40.1348 69.5282 40.177 69.5768 40.2061C69.6254 40.2352 69.6794 40.2504 69.7342 40.2504L69.7352 40.2503C69.7347 40.2667 69.7342 40.283 69.7342 40.2995C69.7342 40.3984 69.7445 40.497 69.765 40.593C69.6636 40.637 69.5736 40.7099 69.5034 40.8049C69.4332 40.8999 69.3851 41.0139 69.3636 41.1363C69.3421 41.2586 69.3479 41.3852 69.3805 41.5042C69.4132 41.6233 69.4715 41.7308 69.55 41.8167C69.6286 41.9026 69.7248 41.9642 69.8296 41.9955C69.9344 42.0268 70.0445 42.027 70.1493 41.9959C70.2542 41.9648 70.3506 41.9035 70.4293 41.8178C70.508 41.7321 70.5665 41.6247 70.5993 41.5058C70.8366 41.5583 71.0823 41.5163 71.2961 41.3866C71.3179 41.4459 71.352 41.498 71.3954 41.5385C71.4388 41.579 71.4902 41.6066 71.545 41.6189C71.5998 41.6311 71.6564 41.6277 71.7098 41.6089C71.7632 41.5901 71.8117 41.5564 71.8512 41.5109C71.8907 41.4654 71.9199 41.4095 71.9362 41.3479C71.9526 41.2864 71.9555 41.2212 71.9449 41.158C71.9342 41.0948 71.9103 41.0357 71.8752 40.9856C71.84 40.9356 71.7948 40.8963 71.7434 40.8712C71.8172 40.7096 71.8587 40.5311 71.8648 40.3486L71.8659 40.3487C71.9563 40.3487 72.0431 40.3073 72.107 40.2336C72.171 40.1598 72.2069 40.0599 72.2069 39.9556C72.2069 39.8514 72.171 39.7514 72.107 39.6777C72.0431 39.604 71.9563 39.5626 71.8659 39.5626V39.5626Z" fill="#6C63FF"/>
<path d="M73.9285 36.0298C74.0227 36.0298 74.0991 35.9418 74.0991 35.8332C74.0991 35.7247 74.0227 35.6367 73.9285 35.6367C73.8343 35.6367 73.758 35.7247 73.758 35.8332C73.758 35.9418 73.8343 36.0298 73.9285 36.0298Z" fill="#6C63FF"/>
<path d="M74.3296 35.1339C74.4238 35.1339 74.5002 35.0459 74.5002 34.9374C74.5002 34.8288 74.4238 34.7408 74.3296 34.7408C74.2355 34.7408 74.1591 34.8288 74.1591 34.9374C74.1591 35.0459 74.2355 35.1339 74.3296 35.1339Z" fill="#6C63FF"/>
<path d="M73.7321 35.0293C73.715 34.9597 73.6816 34.8969 73.6354 34.8479C73.6908 34.7736 73.7383 34.6919 73.7769 34.6047C73.7859 34.6027 73.7948 34.6006 73.8037 34.5977C73.8682 34.5768 73.9259 34.5346 73.9696 34.4762C74.0133 34.4178 74.0412 34.3459 74.0497 34.2694C74.0582 34.1929 74.0469 34.1152 74.0174 34.046C73.9878 33.9768 73.9412 33.9192 73.8834 33.8803C73.8712 33.775 73.8468 33.672 73.8111 33.574C73.8137 33.5732 73.8163 33.5728 73.8188 33.5719C73.8738 33.5542 73.924 33.5208 73.9649 33.4749C74.0058 33.4289 74.036 33.3719 74.0528 33.309C74.0696 33.2462 74.0724 33.1794 74.061 33.115C74.0496 33.0505 74.0243 32.9904 73.9875 32.9401C73.9507 32.8898 73.9036 32.8509 73.8503 32.8271C73.7971 32.8033 73.7396 32.7952 73.683 32.8037C73.6264 32.8121 73.5725 32.8368 73.5263 32.8755C73.4801 32.9142 73.4431 32.9656 73.4186 33.025C73.3561 32.977 73.2893 32.9366 73.2194 32.9047C73.2417 32.847 73.2517 32.784 73.2484 32.721C73.2451 32.658 73.2287 32.5969 73.2006 32.5427C73.1724 32.4886 73.1334 32.443 73.0868 32.4099C73.0401 32.3768 72.9873 32.3572 72.9326 32.3526C72.878 32.348 72.8232 32.3587 72.7729 32.3837C72.7226 32.4086 72.6783 32.4472 72.6437 32.4961C72.6091 32.545 72.5852 32.6028 72.574 32.6646C72.5629 32.7264 72.5648 32.7904 72.5797 32.8511L72.58 32.8523C72.5662 32.8561 72.5524 32.86 72.5386 32.8645C72.456 32.8913 72.3765 32.9295 72.3019 32.9782C72.2377 32.8777 72.1524 32.7976 72.054 32.7455C71.9556 32.6934 71.8473 32.6709 71.7393 32.6802C71.6313 32.6896 71.5271 32.7304 71.4365 32.7988C71.346 32.8672 71.272 32.961 71.2215 33.0715C71.171 33.1819 71.1457 33.3053 71.1479 33.43C71.1501 33.5548 71.1799 33.6769 71.2342 33.7848C71.2886 33.8928 71.3659 33.983 71.4589 34.0471C71.5518 34.1111 71.6574 34.1469 71.7656 34.1511C71.786 34.4285 71.8877 34.6897 72.054 34.8917C72.0104 34.9319 71.9761 34.9839 71.9541 35.043C71.932 35.1021 71.9229 35.1666 71.9275 35.2307C71.9321 35.2948 71.9503 35.3567 71.9805 35.4108C72.0107 35.4649 72.052 35.5097 72.1007 35.5412C72.1494 35.5726 72.204 35.5898 72.2599 35.5913C72.3157 35.5927 72.371 35.5783 72.4208 35.5494C72.4707 35.5204 72.5137 35.4778 72.5459 35.4253C72.5782 35.3728 72.5987 35.3119 72.6058 35.2481C72.7608 35.2862 72.9212 35.2839 73.0752 35.2411L73.0755 35.2423C73.0876 35.2921 73.1081 35.3385 73.1358 35.3791C73.1635 35.4197 73.1979 35.4536 73.2369 35.4789C73.276 35.5041 73.319 35.5203 73.3635 35.5264C73.408 35.5325 73.4531 35.5284 73.4963 35.5144C73.5394 35.5004 73.5797 35.4768 73.6149 35.4448C73.6501 35.4128 73.6795 35.3732 73.7014 35.3281C73.7233 35.2831 73.7373 35.2335 73.7425 35.1822C73.7478 35.1309 73.7442 35.0789 73.7321 35.0292V35.0293Z" fill="#6C63FF"/>
<path d="M67.3234 33.3591C67.4176 33.3591 67.494 33.2711 67.494 33.1626C67.494 33.0541 67.4176 32.9661 67.3234 32.9661C67.2292 32.9661 67.1529 33.0541 67.1529 33.1626C67.1529 33.2711 67.2292 33.3591 67.3234 33.3591Z" fill="#6C63FF"/>
<path d="M66.4514 33.4397C66.5456 33.4397 66.622 33.3517 66.622 33.2432C66.622 33.1346 66.5456 33.0466 66.4514 33.0466C66.3572 33.0466 66.2809 33.1346 66.2809 33.2432C66.2809 33.3517 66.3572 33.4397 66.4514 33.4397Z" fill="#6C63FF"/>
<path d="M66.8348 33.7795C66.7925 33.8329 66.7639 33.8988 66.7521 33.9698C66.6681 33.9549 66.5829 33.9515 66.4982 33.9598C66.492 33.9521 66.4857 33.9444 66.4789 33.9372C66.4295 33.8852 66.3679 33.8511 66.3018 33.8391C66.2357 33.8271 66.1679 33.8378 66.1071 33.8699C66.0462 33.902 65.9949 33.954 65.9596 34.0195C65.9242 34.085 65.9063 34.161 65.9082 34.2381C65.837 34.3057 65.774 34.3839 65.7206 34.4707C65.7187 34.4686 65.717 34.4662 65.715 34.4642C65.6729 34.4197 65.6218 34.3882 65.5664 34.3725C65.5109 34.3567 65.453 34.3573 65.3978 34.374C65.3426 34.3908 65.2919 34.4233 65.2504 34.4685C65.2089 34.5137 65.178 34.5702 65.1603 34.6328C65.1427 34.6953 65.139 34.762 65.1495 34.8267C65.1601 34.8913 65.1845 34.9519 65.2207 35.0028C65.2568 35.0538 65.3034 35.0934 65.3563 35.1182C65.4092 35.143 65.4667 35.1521 65.5234 35.1446C65.521 35.2312 65.5265 35.3179 65.5399 35.4031C65.4856 35.4117 65.434 35.4353 65.3893 35.4717C65.3446 35.5082 65.3082 35.5566 65.2831 35.6127C65.2581 35.6688 65.2451 35.7311 65.2454 35.7942C65.2456 35.8573 65.259 35.9194 65.2845 35.9753C65.31 36.0312 65.3468 36.0791 65.3918 36.1152C65.4367 36.1512 65.4886 36.1742 65.5429 36.1823C65.5972 36.1903 65.6524 36.1832 65.7038 36.1614C65.7553 36.1397 65.8014 36.104 65.8383 36.0574L65.839 36.0565C65.8491 36.068 65.8592 36.0794 65.8698 36.0905C65.9332 36.1572 66.0033 36.2148 66.0787 36.2621C66.0385 36.378 66.0245 36.5038 66.0381 36.6276C66.0516 36.7515 66.0923 36.8693 66.1562 36.9701C66.2201 37.0708 66.3052 37.1512 66.4034 37.2037C66.5017 37.2562 66.6099 37.2791 66.7179 37.2702C66.826 37.2613 66.9303 37.2209 67.021 37.1528C67.1118 37.0847 67.1861 36.9912 67.2369 36.8809C67.2877 36.7707 67.3133 36.6474 67.3115 36.5226C67.3096 36.3978 67.2802 36.2756 67.2261 36.1675C67.4198 36.001 67.5585 35.7636 67.6196 35.4942C67.6722 35.5156 67.7287 35.5217 67.7839 35.5121C67.8391 35.5024 67.8914 35.4773 67.9362 35.439C67.981 35.4006 68.017 35.3501 68.0409 35.292C68.0649 35.2339 68.0761 35.1698 68.0735 35.1056C68.071 35.0413 68.0548 34.9787 68.0264 34.9233C67.9979 34.8679 67.9582 34.8214 67.9105 34.7879C67.8628 34.7544 67.8088 34.7348 67.753 34.731C67.6973 34.7272 67.6416 34.7392 67.5908 34.766C67.5371 34.5942 67.4506 34.4385 67.3378 34.3103L67.3385 34.3095C67.3688 34.2714 67.3923 34.2268 67.4076 34.1782C67.4229 34.1296 67.4297 34.0781 67.4277 34.0265C67.4257 33.9748 67.4149 33.9242 67.3959 33.8774C67.3769 33.8306 67.3501 33.7886 67.3169 33.7538C67.2838 33.7189 67.2451 33.692 67.2029 33.6744C67.1608 33.6568 67.116 33.649 67.0712 33.6514C67.0264 33.6538 66.9825 33.6663 66.9419 33.6883C66.9014 33.7103 66.8649 33.7413 66.8348 33.7795V33.7795Z" fill="#6C63FF"/>
<path d="M71.719 29.2124H67.9293V29.8675H71.719V29.2124Z" fill="#E6E6E6"/>
<path d="M3.37379 80.8808C4.73994 82.9892 7.5758 83.2111 7.5758 83.2111C7.5758 83.2111 8.19669 80.0147 6.83054 77.9063C5.46439 75.798 2.62854 75.576 2.62854 75.576C2.62854 75.576 2.00764 78.7725 3.37379 80.8808Z" fill="#E6E6E6"/>
<path d="M10.3333 81.6733C9.43178 83.0646 7.56048 83.211 7.56048 83.211C7.56048 83.211 7.15077 81.1018 8.05225 79.7105C8.95374 78.3193 10.825 78.1729 10.825 78.1729C10.825 78.1729 11.2347 80.2821 10.3333 81.6733Z" fill="#E6E6E6"/>
</g>
<defs>
<clipPath id="clip0_3_162">
<rect width="66.3444" height="60.5267" fill="white" transform="translate(60.9609 51.5844)"/>
</clipPath>
<clipPath id="clip1_3_162">
<rect width="80.9626" height="63.0945" fill="white" transform="translate(0.988525 25.1727)"/>
</clipPath>
</defs>
</svg>
